<svg xmlns="http://www.w3.org/2000/svg" xmlns:xlink="http://www.w3.org/1999/xlink" viewBox="0 0 9.83 9.77"><defs><style>.cls-1{fill:none;}.cls-2{clip-path:url(#clip-path);}.cls-3{fill:#fff;}</style><clipPath id="clip-path" transform="translate(-2.16 -2.19)"><rect class="cls-1" width="14.14" height="14.14"/></clipPath></defs><g id="Capa_2" data-name="Capa 2"><g id="Capa_1-2" data-name="Capa 1"><g class="cls-2"><path class="cls-3" d="M10,9.94l1.38,0A4.57,4.57,0,0,1,7.4,12a5.32,5.32,0,0,1-3.74-1.38,4.56,4.56,0,0,1-1.5-3.51A4.63,4.63,0,0,1,3.61,3.58,5.14,5.14,0,0,1,7.32,2.19a5.06,5.06,0,0,1,3.27,1.06A3.54,3.54,0,0,1,12,6.14a3.51,3.51,0,0,1-1.43,3,3.4,3.4,0,0,1-2,.77.61.61,0,0,1-.69-.66h0a1.82,1.82,0,0,1-1.37.66A1.84,1.84,0,0,1,5,9.17,2.85,2.85,0,0,1,4.36,7.3a2.8,2.8,0,0,1,.73-1.91,2.37,2.37,0,0,1,1.85-.81,1.88,1.88,0,0,1,1.62.77l.12-.63H10L9.49,7.55c-.09.55-.13.79-.13.74,0,.17.06.26.17.26a.91.91,0,0,0,.76-.48,2.61,2.61,0,0,0,.4-1.51q0-3.07-3.48-3.08a3.33,3.33,0,0,0-2.54,1,3.6,3.6,0,0,0-1,2.6,3.42,3.42,0,0,0,1,2.62,3.74,3.74,0,0,0,2.67.94A4.37,4.37,0,0,0,10,9.94ZM7,8.61a1.1,1.1,0,0,0,.92-.41,1.59,1.59,0,0,0,.34-1.06,1.32,1.32,0,0,0-.31-.91,1.05,1.05,0,0,0-.81-.35,1.11,1.11,0,0,0-.92.43,1.53,1.53,0,0,0-.35,1,1.47,1.47,0,0,0,.29.93A1,1,0,0,0,7,8.61Z" transform="translate(-2.16 -2.19)"/></g></g></g></svg>