<svg xmlns="http://www.w3.org/2000/svg" xmlns:xlink="http://www.w3.org/1999/xlink" viewBox="0 0 40.71 45.41"><defs><style>.cls-1{fill:none;}.cls-2{clip-path:url(#clip-path);}.cls-3{fill:#00e065;}</style><clipPath id="clip-path" transform="translate(-16.24 -12.82)"><rect class="cls-1" width="73.2" height="73.2"/></clipPath></defs><g id="Capa_2" data-name="Capa 2"><g id="Capa_1-2" data-name="Capa 1"><g class="cls-2"><path class="cls-3" d="M55.63,27.74l-16.86-14a3.12,3.12,0,0,0-4.4,0l-16.72,14a3.13,3.13,0,0,0-1.41,2.41V55.46A2.78,2.78,0,0,0,19,58.23H52.41l-7.92-8.81a13.71,13.71,0,1,1,2.92-2.88l9.2,10.23A2.64,2.64,0,0,0,57,55.46V30.1A3.1,3.1,0,0,0,55.63,27.74Z" transform="translate(-16.24 -12.82)"/><circle class="cls-3" cx="20.36" cy="25.61" r="9.57"/></g></g></g></svg>