<svg xmlns="http://www.w3.org/2000/svg" xmlns:xlink="http://www.w3.org/1999/xlink" viewBox="0 0 47.43 47.43"><defs><style>.cls-1{fill:none;}.cls-2{clip-path:url(#clip-path);}.cls-3{fill:#00e065;}</style><clipPath id="clip-path" transform="translate(-12.88 -12.88)"><rect class="cls-1" width="73.2" height="73.2"/></clipPath></defs><g id="Capa_2" data-name="Capa 2"><g id="Capa_1-2" data-name="Capa 1"><g class="cls-2"><path class="cls-3" d="M36.6,17.16c6.33,0,7.08,0,9.58.14a13.1,13.1,0,0,1,4.4.81,7.93,7.93,0,0,1,4.51,4.5A13.18,13.18,0,0,1,55.9,27c.12,2.5.14,3.25.14,9.58s0,7.08-.14,9.58a13.1,13.1,0,0,1-.81,4.4,7.91,7.91,0,0,1-4.51,4.51,13.1,13.1,0,0,1-4.4.81c-2.5.12-3.25.14-9.58.14S29.52,56,27,55.9a13.18,13.18,0,0,1-4.41-.81,7.93,7.93,0,0,1-4.5-4.51,13.1,13.1,0,0,1-.81-4.4c-.12-2.5-.14-3.25-.14-9.58s0-7.08.14-9.58a13.18,13.18,0,0,1,.81-4.41,7.95,7.95,0,0,1,4.5-4.5A13.18,13.18,0,0,1,27,17.3c2.5-.12,3.25-.14,9.58-.14m0-4.28c-6.44,0-7.25,0-9.78.15a17.24,17.24,0,0,0-5.76,1.1,12.07,12.07,0,0,0-6.93,6.93A17.24,17.24,0,0,0,13,26.82c-.12,2.53-.15,3.34-.15,9.78s0,7.25.15,9.78a17.17,17.17,0,0,0,1.1,5.75,12.12,12.12,0,0,0,6.93,6.94,17.49,17.49,0,0,0,5.76,1.1c2.53.12,3.34.14,9.78.14s7.25,0,9.78-.14a17.43,17.43,0,0,0,5.75-1.1,12.18,12.18,0,0,0,6.94-6.94,17.43,17.43,0,0,0,1.1-5.75c.12-2.53.14-3.34.14-9.78s0-7.25-.14-9.78a17.49,17.49,0,0,0-1.1-5.76,12.12,12.12,0,0,0-6.94-6.93A17.17,17.17,0,0,0,46.38,13c-2.53-.12-3.34-.15-9.78-.15Z" transform="translate(-12.88 -12.88)"/><path class="cls-3" d="M36.6,24.42A12.18,12.18,0,1,0,48.78,36.6,12.18,12.18,0,0,0,36.6,24.42Zm0,20.08a7.91,7.91,0,1,1,7.9-7.9A7.91,7.91,0,0,1,36.6,44.5Z" transform="translate(-12.88 -12.88)"/><circle class="cls-3" cx="36.37" cy="11.06" r="2.85"/></g></g></g></svg>