<?xml version="1.0" encoding="utf-8"?>
<!-- Generator: Adobe Illustrator 25.2.3, SVG Export Plug-In . SVG Version: 6.00 Build 0)  -->
<svg version="1.1" id="Capa_1" xmlns="http://www.w3.org/2000/svg" xmlns:xlink="http://www.w3.org/1999/xlink" x="0px" y="0px"
	 viewBox="0 0 8.7 10.7" style="enable-background:new 0 0 8.7 10.7;" xml:space="preserve">
<style type="text/css">
	.st0{clip-path:url(#SVGID_2_);}
	.st1{fill:#474947;}
</style>
<g id="Capa_2_1_">
	<g id="Capa_1-2">
		<g>
			<defs>
				<rect id="SVGID_1_" x="-2.7" y="-1.4" width="14.1" height="14.1"/>
			</defs>
			<clipPath id="SVGID_2_">
				<use xlink:href="#SVGID_1_"  style="overflow:visible;"/>
			</clipPath>
			<g class="st0">
				<path class="st1" d="M4.3,10.7L4,10.3L1.3,7.7C0,6.4-0.4,4.4,0.3,2.7C1,1.1,2.6,0,4.3,0c1.8,0,3.3,1.1,4,2.7
					c0.7,1.7,0.3,3.6-1,4.9l-2.6,2.7L4.3,10.7z M4.3,1.1c-1.3,0-2.5,0.8-3,2.1C0.8,4.4,1.1,5.9,2.1,6.9C3.3,8.1,4,8.8,4.3,9.1
					l2.3-2.3c1-1,1.3-2.4,0.7-3.7C6.8,1.9,5.7,1.1,4.3,1.1z"/>
				<path class="st1" d="M4.3,4C4.7,4,5,4.2,5,4.6c0,0.3-0.3,0.6-0.6,0.6C4,5.2,3.7,4.9,3.7,4.6C3.7,4.3,4,4,4.3,4 M4.3,2.9
					c-0.9,0-1.7,0.8-1.7,1.7s0.8,1.7,1.7,1.7s1.7-0.8,1.7-1.7c0,0,0,0,0,0C6.1,3.7,5.3,2.9,4.3,2.9C4.3,2.9,4.3,2.9,4.3,2.9z"/>
			</g>
		</g>
	</g>
</g>
</svg>
