<svg xmlns="http://www.w3.org/2000/svg" xmlns:xlink="http://www.w3.org/1999/xlink" viewBox="0 0 46.39 46.61"><defs><style>.cls-1{fill:none;}.cls-2{clip-path:url(#clip-path);}.cls-3{fill:#00e065;fill-rule:evenodd;}</style><clipPath id="clip-path" transform="translate(-13.6 -13.1)"><rect class="cls-1" width="73.2" height="73.2"/></clipPath></defs><g id="Capa_2" data-name="Capa 2"><g id="Capa_1-2" data-name="Capa 1"><g class="cls-2"><g id="WA_Logo" data-name="WA Logo"><path class="cls-3" d="M53.23,19.87A23.11,23.11,0,0,0,16.87,47.74l-3.27,12L25.84,56.5a23.08,23.08,0,0,0,11,2.81h0A23.11,23.11,0,0,0,53.23,19.87ZM36.89,55.41h0a19.17,19.17,0,0,1-9.77-2.68l-.7-.41-7.27,1.9,1.94-7.08-.45-.73a19.2,19.2,0,1,1,16.26,9ZM47.42,41c-.58-.29-3.42-1.68-3.94-1.88s-.92-.29-1.3.29-1.49,1.88-1.83,2.27-.67.43-1.25.14A15.68,15.68,0,0,1,34.46,39a17.24,17.24,0,0,1-3.21-4c-.34-.58,0-.89.25-1.18s.58-.67.87-1a3.92,3.92,0,0,0,.57-1,1.07,1.07,0,0,0,0-1c-.15-.28-1.3-3.13-1.78-4.28s-.95-1-1.3-1-.72,0-1.11,0a2.12,2.12,0,0,0-1.54.72,6.46,6.46,0,0,0-2,4.81c0,2.85,2.07,5.59,2.36,6s4.07,6.22,9.86,8.72A31.78,31.78,0,0,0,40.66,47a7.86,7.86,0,0,0,3.63.23c1.11-.16,3.42-1.39,3.9-2.74a4.88,4.88,0,0,0,.34-2.74C48.38,41.46,48,41.32,47.42,41Z" transform="translate(-13.6 -13.1)"/></g></g></g></g></svg>